<svg width="20" height="20" viewBox="0 0 20 20" fill="none" xmlns="http://www.w3.org/2000/svg">
<path fill-rule="evenodd" clip-rule="evenodd" d="M5.83573 0.905635L9.05947 6.48933V0.0436481C9.3691 0.014766 9.68282 0 9.99999 0C10.3172 0 10.631 0.014771 10.9407 0.0436628V6.48917L14.1643 0.905658C14.7384 1.16896 15.2832 1.48503 15.7927 1.84765L12.5694 7.43055L18.1523 4.20725C18.5149 4.71666 18.831 5.26151 19.0943 5.8356L13.5105 9.05941H19.9563C19.9852 9.36906 20 9.6828 20 10C20 10.3172 19.9852 10.6309 19.9563 10.9406H13.5102L19.0942 14.1645C18.8309 14.7386 18.5148 15.2835 18.1522 15.7929L12.5702 12.5701L15.793 18.1521C15.2836 18.5148 14.7387 18.8308 14.1647 19.0942L10.9407 13.51V19.9563C10.631 19.9852 10.3172 20 9.99999 20C9.68282 20 9.3691 19.9852 9.05947 19.9564V13.5099L5.83536 19.0942C5.26129 18.8309 4.71644 18.5148 4.20704 18.1522L7.42986 12.5701L1.84779 15.7929C1.48516 15.2835 1.16908 14.7386 0.905761 14.1645L6.48979 10.9406H0.0436558C0.0147686 10.6309 0 10.3172 0 10C0 9.6828 0.0147684 9.36906 0.043655 9.05941H6.48951L0.905699 5.83559C1.16901 5.26151 1.48508 4.71666 1.8477 4.20725L7.4307 7.4306L4.20737 1.84762C4.71679 1.485 5.26164 1.16894 5.83573 0.905635ZM7.64961 10L10.0001 7.6496L12.3505 10L10.0001 12.3505L7.64961 10Z" fill="black"/>
</svg>
