<svg xmlns="http://www.w3.org/2000/svg" fill="none" viewBox="25.773 4.113475177304965 45.298 11.77304964539007" style="max-height: 500px" width="45.298" height="11.77304964539007">
<path fill="black" d="M5.83553 0.905727L9.05945 6.48973V0.0436501C9.36908 0.0147667 9.68281 0 9.99999 0C10.3172 0 10.631 0.0147704 10.9406 0.043661V6.48953L14.1645 0.905728C14.7385 1.16904 15.2834 1.48512 15.7928 1.84774L12.5698 7.4302L18.1522 4.20717C18.5148 4.71657 18.8309 5.26142 19.0942 5.8355L13.5103 9.0594L19.9563 9.0594C19.9852 9.36905 20 9.6828 20 10C20 10.3172 19.9852 10.6309 19.9563 10.9406H13.5103L19.0943 14.1645C18.8309 14.7385 18.5149 15.2834 18.1522 15.7928L12.5697 12.5697L15.7928 18.1522C15.2834 18.5149 14.7385 18.831 14.1645 19.0943L10.9406 13.5104V19.9563C10.631 19.9852 10.3172 20 9.99999 20C9.68281 20 9.36908 19.9852 9.05945 19.9563V13.5102L5.83552 19.0943C5.26144 18.831 4.71659 18.5149 4.20718 18.1522L7.43025 12.5697L1.84773 15.7928C1.4851 15.2834 1.16903 14.7385 0.905718 14.1644L6.4896 10.9406H0.0436548C0.0147683 10.6309 0 10.3172 0 10C0 9.6828 0.0147687 9.36905 0.043656 9.0594L6.48965 9.0594L0.905733 5.83552C1.16905 5.26144 1.48512 4.71659 1.84775 4.20718L7.43024 7.43023L4.20719 1.84774C4.7166 1.48512 5.26145 1.16904 5.83553 0.905727ZM7.6496 10L10 7.64955L12.3505 10L10 12.3504L7.6496 10Z" clip-rule="evenodd" fill-rule="evenodd"/>
<path fill="black" d="M66.8728 15.633C65.6018 15.633 64.551 15.3152 63.7205 14.6797C62.8972 14.0442 62.4314 13.1812 62.3231 12.0907H64.2838C64.3488 12.6251 64.6088 13.0548 65.0638 13.3798C65.526 13.7048 66.1001 13.8673 66.7862 13.8673C67.4578 13.8673 67.9958 13.7264 68.4002 13.4448C68.8046 13.1559 69.0068 12.784 69.0068 12.329C69.0068 11.9679 68.8877 11.6718 68.6494 11.4407C68.4111 11.2096 68.1041 11.0399 67.7286 10.9316C67.3531 10.8161 66.9342 10.715 66.472 10.6283C66.017 10.5416 65.5585 10.4405 65.0963 10.325C64.6413 10.2022 64.226 10.0433 63.8505 9.84835C63.475 9.65336 63.1681 9.36449 62.9297 8.98173C62.6914 8.59176 62.5723 8.11873 62.5723 7.56266C62.5723 6.63105 62.937 5.86554 63.6664 5.26614C64.3958 4.66673 65.3562 4.36703 66.5478 4.36703C67.6672 4.36703 68.6277 4.65951 69.4293 5.24447C70.2309 5.82221 70.6967 6.61661 70.8267 7.62765H68.7577C68.6927 7.18713 68.4508 6.82243 68.0319 6.53356C67.6203 6.24469 67.1075 6.10025 66.4937 6.10025C65.9232 6.10025 65.4574 6.21941 65.0963 6.45773C64.7424 6.69605 64.5655 7.01381 64.5655 7.411C64.5655 7.75765 64.6846 8.0393 64.9229 8.25595C65.1613 8.46538 65.4682 8.62065 65.8437 8.72175C66.2193 8.82286 66.6345 8.91313 67.0895 8.99257C67.5517 9.07201 68.0102 9.17672 68.4652 9.30671C68.9274 9.42948 69.3463 9.59558 69.7218 9.80501C70.0973 10.0144 70.4043 10.3286 70.6426 10.7475C70.8809 11.1663 71.0001 11.6791 71.0001 12.2857C71.0001 13.2462 70.6065 14.0442 69.8193 14.6797C69.0321 15.3152 68.05 15.633 66.8728 15.633Z"/>
<path fill="black" d="M55.2277 4.36703C56.2604 4.36703 57.2028 4.61618 58.055 5.11448C58.9072 5.60556 59.5788 6.28441 60.0699 7.15102C60.5682 8.01763 60.8173 8.97451 60.8173 10.0217C60.8173 11.6032 60.2757 12.9356 59.1924 14.0189C58.1164 15.095 56.7948 15.633 55.2277 15.633C54.195 15.633 53.2489 15.3874 52.3895 14.8964C51.5374 14.4053 50.8657 13.73 50.3747 12.8707C49.8836 12.0113 49.638 11.0616 49.638 10.0217C49.638 8.42566 50.1761 7.08602 51.2521 6.00276C52.3281 4.91227 53.6533 4.36703 55.2277 4.36703ZM55.2277 6.3169C54.2094 6.3169 53.3536 6.67077 52.6603 7.3785C51.9743 8.08624 51.6312 8.96729 51.6312 10.0217C51.6312 11.0544 51.9743 11.9246 52.6603 12.6323C53.3536 13.3328 54.2094 13.6831 55.2277 13.6831C56.2387 13.6831 57.0909 13.3292 57.7842 12.6215C58.4775 11.9138 58.8241 11.0472 58.8241 10.0217C58.8241 8.96729 58.4775 8.08624 57.7842 7.3785C57.0909 6.67077 56.2387 6.3169 55.2277 6.3169Z"/>
<path fill="black" d="M48.2406 9.74002C48.2406 10.0506 48.2261 10.3214 48.1972 10.5525H39.4986C39.6214 11.5418 40.0006 12.329 40.6361 12.914C41.2788 13.4989 42.0985 13.7914 43.0951 13.7914C43.8534 13.7914 44.5069 13.6217 45.0558 13.2823C45.6046 12.9356 45.9477 12.4771 46.0849 11.9065H48.1323C47.93 13.0331 47.3595 13.9359 46.4207 14.6147C45.4819 15.2936 44.3517 15.633 43.0301 15.633C41.4557 15.633 40.1378 15.0913 39.0762 14.0081C38.0146 12.9176 37.4838 11.5671 37.4838 9.95667C37.4838 8.93118 37.7257 7.99235 38.2096 7.14019C38.6934 6.2808 39.3578 5.60556 40.2028 5.11448C41.0549 4.61618 41.9902 4.36703 43.0084 4.36703C44.4744 4.36703 45.713 4.87616 46.724 5.89443C47.7351 6.9127 48.2406 8.19456 48.2406 9.74002ZM39.5636 8.83008H46.0199C45.9332 8.06457 45.6046 7.43989 45.0341 6.95603C44.4708 6.47217 43.7667 6.23024 42.9218 6.23024C42.0696 6.23024 41.3438 6.46134 40.7444 6.92353C40.145 7.38572 39.7514 8.02124 39.5636 8.83008Z"/>
<path fill="black" d="M28.095 15.6329H26V9.40915C26 6.62446 28.2574 4.36703 31.0421 4.36703C33.8268 4.36703 36.0842 6.62446 36.0842 9.40915V15.6329H34.0121V9.335C34.0121 7.70105 32.6875 6.37646 31.0536 6.37646C29.4196 6.37646 28.095 7.70104 28.095 9.335V15.6329Z"/>
</svg>