<svg width="25" height="24" viewBox="0 0 25 24" fill="none" xmlns="http://www.w3.org/2000/svg">
<path d="M21.2101 3.65451C21.2101 3.65451 23.1526 2.89701 22.9901 4.73651C22.9366 5.49401 22.4511 8.14551 22.0731 11.013L20.7781 19.508C20.7781 19.508 20.6701 20.7525 19.6986 20.969C18.7276 21.185 17.2706 20.2115 17.0006 19.995C16.7846 19.8325 12.9536 17.3975 11.6046 16.2075C11.2266 15.8825 10.7946 15.2335 11.6586 14.476L17.3246 9.06501C17.9721 8.41501 18.6196 6.90001 15.9216 8.74001L8.36665 13.88C8.36665 13.88 7.50315 14.4215 5.88465 13.9345L2.37665 12.852C2.37665 12.852 1.08165 12.0405 3.29415 11.229C8.69065 8.68601 15.3281 6.08901 21.2096 3.65401" fill="white"/>
</svg>
