<svg width="17" height="17" viewBox="0 0 17 17" fill="none" xmlns="http://www.w3.org/2000/svg">
<rect x="0.25" y="0.25" width="16.5" height="16.5" rx="8.25" fill="black"/>
<path fill-rule="evenodd" clip-rule="evenodd" d="M5.7931 2.58872L7.88865 6.21833V2.02837C8.08991 2.0096 8.29383 2 8.5 2C8.70619 2 8.91014 2.0096 9.11143 2.02838V6.2182L11.2069 2.58872C11.5801 2.75988 11.9342 2.96533 12.2653 3.20103L10.1704 6.82963L13.799 4.73466C14.0347 5.06577 14.2401 5.41992 14.4113 5.79308L10.7817 7.88861L14.9716 7.88861C14.9904 8.08988 15 8.29382 15 8.5C15 8.70618 14.9904 8.91011 14.9716 9.11138H10.7817L14.4113 11.2069C14.2401 11.5801 14.0347 11.9342 13.799 12.2653L10.1703 10.1703L12.2653 13.799C11.9342 14.0347 11.5801 14.2401 11.2069 14.4113L9.11143 10.7818V14.9716C8.91014 14.9904 8.70619 15 8.5 15C8.29383 15 8.08991 14.9904 7.88865 14.9716V10.7817L5.79309 14.4113C5.41994 14.2401 5.06578 14.0347 4.73467 13.799L6.82967 10.1703L3.20103 12.2653C2.96532 11.9342 2.75987 11.58 2.58872 11.2069L6.21824 9.11138H2.02838C2.0096 8.91011 2 8.70618 2 8.5C2 8.29382 2.0096 8.08988 2.02838 7.88861H6.21828L2.58873 5.79309C2.75988 5.41993 2.96533 5.06578 3.20104 4.73467L6.82966 6.82965L4.73468 3.20103C5.06579 2.96533 5.41994 2.75988 5.7931 2.58872ZM6.97224 8.5L8.50003 6.97221L10.0278 8.5L8.50003 10.0278L6.97224 8.5Z" fill="white"/>
</svg>
