<svg width="1000" height="492" viewBox="0 0 1000 492" fill="none" xmlns="http://www.w3.org/2000/svg">
<rect y="0.714355" width="1000" height="491.074" rx="10" fill="#F7F7F7"/>
<mask id="path-2-inside-1_207_3789" fill="white">
<path d="M319.998 40.7144C363.403 40.7144 405.694 54.4555 440.81 79.9684L319.998 246.252V40.7144Z"/>
</mask>
<path d="M319.998 40.7144C363.403 40.7144 405.694 54.4555 440.81 79.9684L319.998 246.252V40.7144Z" fill="#8293A8" stroke="#F7F7F7" stroke-width="4" mask="url(#path-2-inside-1_207_3789)"/>
<mask id="path-3-inside-2_207_3789" fill="white">
<path d="M515.559 182.993C528.918 224.292 528.859 268.759 515.392 310.022C501.925 351.286 475.741 387.226 440.592 412.693C405.443 438.16 363.134 451.846 319.729 451.789C276.324 451.732 234.051 437.935 198.968 412.376C163.886 386.817 137.796 350.808 124.438 309.51C111.079 268.211 111.137 223.744 124.604 182.481C138.071 141.218 164.256 105.277 199.405 79.8102C234.553 54.3434 276.862 40.6576 320.268 40.7145L319.998 246.252L515.559 182.993Z"/>
</mask>
<path d="M515.559 182.993C528.918 224.292 528.859 268.759 515.392 310.022C501.925 351.286 475.741 387.226 440.592 412.693C405.443 438.16 363.134 451.846 319.729 451.789C276.324 451.732 234.051 437.935 198.968 412.376C163.886 386.817 137.796 350.808 124.438 309.51C111.079 268.211 111.137 223.744 124.604 182.481C138.071 141.218 164.256 105.277 199.405 79.8102C234.553 54.3434 276.862 40.6576 320.268 40.7145L319.998 246.252L515.559 182.993Z" fill="#242930" stroke="#F7F7F7" stroke-width="4" mask="url(#path-3-inside-2_207_3789)"/>
<mask id="path-4-inside-3_207_3789" fill="white">
<path d="M441.343 80.3568C476.376 105.982 502.398 142.041 515.678 183.364L319.998 246.252L441.343 80.3568Z"/>
</mask>
<path d="M441.343 80.3568C476.376 105.982 502.398 142.041 515.678 183.364L319.998 246.252L441.343 80.3568Z" fill="#515E6D" stroke="#F7F7F7" stroke-width="4" mask="url(#path-4-inside-3_207_3789)"/>
<path d="M423.097 157.169V171.714H420.022V160.088H419.936L416.605 162.176V159.449L420.206 157.169H423.097ZM432.257 172.034C431.036 172.029 429.984 171.729 429.104 171.132C428.228 170.535 427.553 169.671 427.08 168.54C426.611 167.408 426.379 166.047 426.384 164.456C426.384 162.87 426.618 161.518 427.087 160.4C427.56 159.283 428.235 158.433 429.111 157.851C429.991 157.264 431.04 156.97 432.257 156.97C433.474 156.97 434.52 157.264 435.396 157.851C436.277 158.438 436.954 159.29 437.428 160.408C437.901 161.52 438.135 162.87 438.131 164.456C438.131 166.051 437.894 167.415 437.42 168.547C436.952 169.678 436.279 170.542 435.403 171.139C434.527 171.736 433.479 172.034 432.257 172.034ZM432.257 169.484C433.09 169.484 433.756 169.065 434.253 168.227C434.75 167.389 434.996 166.132 434.991 164.456C434.991 163.353 434.878 162.434 434.651 161.7C434.428 160.966 434.111 160.415 433.699 160.045C433.292 159.676 432.811 159.491 432.257 159.491C431.429 159.491 430.766 159.906 430.268 160.734C429.771 161.563 429.52 162.803 429.516 164.456C429.516 165.573 429.627 166.506 429.849 167.254C430.077 167.997 430.396 168.556 430.808 168.93C431.22 169.3 431.703 169.484 432.257 169.484ZM448.285 168.987V168.22C448.285 167.638 448.408 167.103 448.654 166.615C448.905 166.122 449.268 165.73 449.741 165.436C450.219 165.138 450.802 164.989 451.488 164.989C452.184 164.989 452.769 165.135 453.243 165.429C453.721 165.722 454.081 166.115 454.322 166.608C454.568 167.096 454.691 167.633 454.691 168.22V168.987C454.691 169.569 454.568 170.107 454.322 170.599C454.076 171.087 453.714 171.478 453.235 171.771C452.757 172.069 452.175 172.219 451.488 172.219C450.792 172.219 450.208 172.069 449.734 171.771C449.261 171.478 448.901 171.087 448.654 170.599C448.408 170.107 448.285 169.569 448.285 168.987ZM450.352 168.22V168.987C450.352 169.323 450.432 169.64 450.593 169.939C450.759 170.237 451.057 170.386 451.488 170.386C451.919 170.386 452.213 170.239 452.369 169.946C452.53 169.652 452.61 169.333 452.61 168.987V168.22C452.61 167.874 452.535 167.552 452.383 167.254C452.232 166.956 451.933 166.807 451.488 166.807C451.062 166.807 450.766 166.956 450.6 167.254C450.435 167.552 450.352 167.874 450.352 168.22ZM440.821 160.663V159.896C440.821 159.309 440.946 158.772 441.197 158.284C441.448 157.792 441.81 157.399 442.284 157.105C442.762 156.811 443.34 156.665 444.017 156.665C444.717 156.665 445.305 156.811 445.778 157.105C446.252 157.399 446.611 157.792 446.858 158.284C447.104 158.772 447.227 159.309 447.227 159.896V160.663C447.227 161.25 447.101 161.788 446.85 162.275C446.604 162.763 446.242 163.154 445.764 163.447C445.29 163.736 444.708 163.881 444.017 163.881C443.325 163.881 442.741 163.734 442.262 163.44C441.789 163.142 441.429 162.751 441.183 162.268C440.941 161.781 440.821 161.246 440.821 160.663ZM442.902 159.896V160.663C442.902 161.009 442.982 161.328 443.143 161.622C443.309 161.916 443.6 162.062 444.017 162.062C444.452 162.062 444.748 161.916 444.904 161.622C445.065 161.328 445.146 161.009 445.146 160.663V159.896C445.146 159.551 445.07 159.229 444.919 158.93C444.767 158.632 444.467 158.483 444.017 158.483C443.595 158.483 443.304 158.634 443.143 158.937C442.982 159.24 442.902 159.56 442.902 159.896ZM441.758 171.714L451.758 157.169H453.619L443.619 171.714H441.758Z" fill="white"/>
<path d="M348.097 106.169V120.714H345.022V109.088H344.936L341.605 111.176V108.449L345.206 106.169H348.097ZM357.257 121.034C356.036 121.029 354.984 120.729 354.104 120.132C353.228 119.535 352.553 118.671 352.08 117.54C351.611 116.408 351.379 115.047 351.384 113.456C351.384 111.87 351.618 110.518 352.087 109.4C352.56 108.283 353.235 107.433 354.111 106.851C354.991 106.264 356.04 105.97 357.257 105.97C358.474 105.97 359.52 106.264 360.396 106.851C361.277 107.438 361.954 108.29 362.428 109.408C362.901 110.52 363.135 111.87 363.131 113.456C363.131 115.051 362.894 116.415 362.42 117.547C361.952 118.678 361.279 119.542 360.403 120.139C359.527 120.736 358.479 121.034 357.257 121.034ZM357.257 118.484C358.09 118.484 358.756 118.065 359.253 117.227C359.75 116.389 359.996 115.132 359.991 113.456C359.991 112.353 359.878 111.434 359.651 110.7C359.428 109.966 359.111 109.415 358.699 109.045C358.292 108.676 357.811 108.491 357.257 108.491C356.429 108.491 355.766 108.906 355.268 109.734C354.771 110.563 354.52 111.803 354.516 113.456C354.516 114.573 354.627 115.506 354.849 116.254C355.077 116.997 355.396 117.556 355.808 117.93C356.22 118.3 356.703 118.484 357.257 118.484ZM373.285 117.987V117.22C373.285 116.638 373.408 116.103 373.654 115.615C373.905 115.122 374.268 114.73 374.741 114.436C375.219 114.138 375.802 113.989 376.488 113.989C377.184 113.989 377.769 114.135 378.243 114.429C378.721 114.722 379.081 115.115 379.322 115.608C379.568 116.096 379.691 116.633 379.691 117.22V117.987C379.691 118.569 379.568 119.107 379.322 119.599C379.076 120.087 378.714 120.478 378.235 120.771C377.757 121.069 377.175 121.219 376.488 121.219C375.792 121.219 375.208 121.069 374.734 120.771C374.261 120.478 373.901 120.087 373.654 119.599C373.408 119.107 373.285 118.569 373.285 117.987ZM375.352 117.22V117.987C375.352 118.323 375.432 118.64 375.593 118.939C375.759 119.237 376.057 119.386 376.488 119.386C376.919 119.386 377.213 119.239 377.369 118.946C377.53 118.652 377.61 118.333 377.61 117.987V117.22C377.61 116.874 377.535 116.552 377.383 116.254C377.232 115.956 376.933 115.807 376.488 115.807C376.062 115.807 375.766 115.956 375.6 116.254C375.435 116.552 375.352 116.874 375.352 117.22ZM365.821 109.663V108.896C365.821 108.309 365.946 107.772 366.197 107.284C366.448 106.792 366.81 106.399 367.284 106.105C367.762 105.811 368.34 105.665 369.017 105.665C369.717 105.665 370.305 105.811 370.778 106.105C371.252 106.399 371.611 106.792 371.858 107.284C372.104 107.772 372.227 108.309 372.227 108.896V109.663C372.227 110.25 372.101 110.788 371.85 111.275C371.604 111.763 371.242 112.154 370.764 112.447C370.29 112.736 369.708 112.881 369.017 112.881C368.325 112.881 367.741 112.734 367.262 112.44C366.789 112.142 366.429 111.751 366.183 111.268C365.941 110.781 365.821 110.246 365.821 109.663ZM367.902 108.896V109.663C367.902 110.009 367.982 110.328 368.143 110.622C368.309 110.916 368.6 111.062 369.017 111.062C369.452 111.062 369.748 110.916 369.904 110.622C370.065 110.328 370.146 110.009 370.146 109.663V108.896C370.146 108.551 370.07 108.229 369.919 107.93C369.767 107.632 369.467 107.483 369.017 107.483C368.595 107.483 368.304 107.634 368.143 107.937C367.982 108.24 367.902 108.56 367.902 108.896ZM366.758 120.714L376.758 106.169H378.619L368.619 120.714H366.758Z" fill="white"/>
<path d="M226.476 361.913C225.382 361.913 224.409 361.736 223.557 361.381C222.71 361.021 222.044 360.531 221.561 359.91C221.078 359.29 220.837 358.587 220.837 357.801C220.837 357.195 220.974 356.639 221.249 356.132C221.528 355.621 221.907 355.197 222.385 354.861C222.864 354.52 223.399 354.302 223.99 354.207V354.108C223.214 353.952 222.584 353.575 222.101 352.979C221.618 352.377 221.377 351.679 221.377 350.883C221.377 350.131 221.597 349.461 222.037 348.873C222.478 348.282 223.081 347.818 223.848 347.481C224.62 347.14 225.496 346.97 226.476 346.97C227.456 346.97 228.33 347.14 229.097 347.481C229.869 347.822 230.475 348.289 230.915 348.881C231.355 349.468 231.578 350.135 231.583 350.883C231.578 351.684 231.332 352.382 230.844 352.979C230.356 353.575 229.731 353.952 228.969 354.108V354.207C229.551 354.302 230.079 354.52 230.553 354.861C231.031 355.197 231.41 355.621 231.689 356.132C231.973 356.639 232.118 357.195 232.123 357.801C232.118 358.587 231.874 359.29 231.391 359.91C230.908 360.531 230.24 361.021 229.388 361.381C228.541 361.736 227.57 361.913 226.476 361.913ZM226.476 359.655C226.964 359.655 227.39 359.567 227.755 359.392C228.119 359.212 228.403 358.966 228.607 358.653C228.815 358.336 228.919 357.971 228.919 357.56C228.919 357.138 228.813 356.766 228.6 356.444C228.387 356.118 228.098 355.862 227.733 355.677C227.369 355.488 226.95 355.393 226.476 355.393C226.007 355.393 225.588 355.488 225.219 355.677C224.85 355.862 224.559 356.118 224.346 356.444C224.137 356.766 224.033 357.138 224.033 357.56C224.033 357.971 224.135 358.336 224.338 358.653C224.542 358.966 224.828 359.212 225.198 359.392C225.567 359.567 225.993 359.655 226.476 359.655ZM226.476 353.156C226.883 353.156 227.246 353.073 227.563 352.908C227.88 352.742 228.129 352.512 228.309 352.219C228.489 351.925 228.578 351.587 228.578 351.203C228.578 350.824 228.489 350.493 228.309 350.209C228.129 349.92 227.882 349.695 227.57 349.534C227.257 349.368 226.893 349.285 226.476 349.285C226.064 349.285 225.7 349.368 225.382 349.534C225.065 349.695 224.817 349.92 224.637 350.209C224.462 350.493 224.374 350.824 224.374 351.203C224.374 351.587 224.464 351.925 224.644 352.219C224.824 352.512 225.072 352.742 225.39 352.908C225.707 353.073 226.069 353.156 226.476 353.156ZM239.976 362.034C238.754 362.029 237.703 361.729 236.822 361.132C235.946 360.535 235.272 359.671 234.798 358.54C234.33 357.408 234.098 356.047 234.102 354.456C234.102 352.87 234.337 351.518 234.805 350.4C235.279 349.283 235.954 348.433 236.83 347.851C237.71 347.264 238.759 346.97 239.976 346.97C241.193 346.97 242.239 347.264 243.115 347.851C243.996 348.438 244.673 349.29 245.146 350.408C245.62 351.52 245.854 352.87 245.849 354.456C245.849 356.051 245.613 357.415 245.139 358.547C244.67 359.678 243.998 360.542 243.122 361.139C242.246 361.736 241.197 362.034 239.976 362.034ZM239.976 359.484C240.809 359.484 241.474 359.065 241.972 358.227C242.469 357.389 242.715 356.132 242.71 354.456C242.71 353.353 242.597 352.434 242.369 351.7C242.147 350.966 241.83 350.415 241.418 350.045C241.01 349.676 240.53 349.491 239.976 349.491C239.147 349.491 238.484 349.906 237.987 350.734C237.49 351.563 237.239 352.803 237.234 354.456C237.234 355.573 237.346 356.506 237.568 357.254C237.795 357.997 238.115 358.556 238.527 358.93C238.939 359.3 239.422 359.484 239.976 359.484ZM256.004 358.987V358.22C256.004 357.638 256.127 357.103 256.373 356.615C256.624 356.122 256.986 355.73 257.46 355.436C257.938 355.138 258.52 354.989 259.207 354.989C259.903 354.989 260.488 355.135 260.961 355.429C261.44 355.722 261.799 356.115 262.041 356.608C262.287 357.096 262.41 357.633 262.41 358.22V358.987C262.41 359.569 262.287 360.107 262.041 360.599C261.795 361.087 261.432 361.478 260.954 361.771C260.476 362.069 259.894 362.219 259.207 362.219C258.511 362.219 257.926 362.069 257.453 361.771C256.979 361.478 256.619 361.087 256.373 360.599C256.127 360.107 256.004 359.569 256.004 358.987ZM258.071 358.22V358.987C258.071 359.323 258.151 359.64 258.312 359.939C258.478 360.237 258.776 360.386 259.207 360.386C259.638 360.386 259.931 360.239 260.088 359.946C260.249 359.652 260.329 359.333 260.329 358.987V358.22C260.329 357.874 260.253 357.552 260.102 357.254C259.95 356.956 259.652 356.807 259.207 356.807C258.781 356.807 258.485 356.956 258.319 357.254C258.154 357.552 258.071 357.874 258.071 358.22ZM248.539 350.663V349.896C248.539 349.309 248.665 348.772 248.916 348.284C249.167 347.792 249.529 347.399 250.002 347.105C250.481 346.811 251.058 346.665 251.735 346.665C252.436 346.665 253.023 346.811 253.497 347.105C253.97 347.399 254.33 347.792 254.576 348.284C254.823 348.772 254.946 349.309 254.946 349.896V350.663C254.946 351.25 254.82 351.788 254.569 352.275C254.323 352.763 253.961 353.154 253.483 353.447C253.009 353.736 252.427 353.881 251.735 353.881C251.044 353.881 250.459 353.734 249.981 353.44C249.508 353.142 249.148 352.751 248.902 352.268C248.66 351.781 248.539 351.246 248.539 350.663ZM250.62 349.896V350.663C250.62 351.009 250.701 351.328 250.862 351.622C251.028 351.916 251.319 352.062 251.735 352.062C252.171 352.062 252.467 351.916 252.623 351.622C252.784 351.328 252.865 351.009 252.865 350.663V349.896C252.865 349.551 252.789 349.229 252.637 348.93C252.486 348.632 252.185 348.483 251.735 348.483C251.314 348.483 251.023 348.634 250.862 348.937C250.701 349.24 250.62 349.56 250.62 349.896ZM249.477 361.714L259.477 347.169H261.338L251.338 361.714H249.477Z" fill="white"/>
<circle cx="319.997" cy="246.251" r="77.282" fill="#F7F7F7"/>
<rect x="648.539" y="162.251" width="50" height="34" rx="5" fill="#242930"/>
<path d="M662.875 186.376C661.724 186.376 660.776 186.061 660.031 185.431C659.292 184.796 658.922 183.986 658.922 183.001C658.922 182.413 659.089 181.869 659.422 181.369C659.76 180.863 660.208 180.475 660.766 180.205C660.339 179.981 659.992 179.66 659.727 179.244C659.466 178.827 659.336 178.395 659.336 177.947C659.336 177.067 659.667 176.345 660.328 175.783C660.995 175.22 661.844 174.939 662.875 174.939C663.896 174.939 664.737 175.223 665.398 175.791C666.065 176.353 666.398 177.072 666.398 177.947C666.398 178.405 666.266 178.843 666 179.259C665.734 179.676 665.385 179.991 664.953 180.205C665.51 180.455 665.956 180.832 666.289 181.337C666.628 181.837 666.797 182.392 666.797 183.001C666.797 183.986 666.43 184.796 665.695 185.431C664.961 186.061 664.021 186.376 662.875 186.376ZM661.891 178.939C662.146 179.153 662.474 179.259 662.875 179.259C663.276 179.259 663.602 179.153 663.852 178.939C664.102 178.72 664.224 178.439 664.219 178.095C664.224 177.751 664.102 177.47 663.852 177.251C663.602 177.033 663.276 176.923 662.875 176.923C662.474 176.923 662.146 177.033 661.891 177.251C661.635 177.47 661.51 177.751 661.516 178.095C661.51 178.439 661.635 178.72 661.891 178.939ZM662.875 184.283C663.365 184.283 663.766 184.145 664.078 183.869C664.396 183.593 664.555 183.236 664.555 182.798C664.555 182.366 664.396 182.009 664.078 181.728C663.766 181.447 663.365 181.306 662.875 181.306C662.38 181.306 661.974 181.447 661.656 181.728C661.339 182.009 661.18 182.366 661.18 182.798C661.18 183.236 661.336 183.593 661.648 183.869C661.966 184.145 662.375 184.283 662.875 184.283ZM672.062 186.408C671.161 186.408 670.378 186.168 669.711 185.689C669.049 185.205 668.547 184.53 668.203 183.666C667.865 182.801 667.695 181.796 667.695 180.65C667.695 179.499 667.867 178.491 668.211 177.626C668.555 176.762 669.057 176.09 669.719 175.611C670.38 175.132 671.161 174.892 672.062 174.892C673.427 174.892 674.497 175.416 675.273 176.462C676.055 177.504 676.445 178.9 676.445 180.65C676.445 181.796 676.273 182.801 675.93 183.666C675.586 184.53 675.081 185.205 674.414 185.689C673.753 186.168 672.969 186.408 672.062 186.408ZM672.062 184.111C672.688 184.111 673.167 183.824 673.5 183.251C673.839 182.679 674.008 181.811 674.008 180.65C674.008 179.488 673.839 178.624 673.5 178.056C673.167 177.483 672.688 177.197 672.062 177.197C671.443 177.197 670.964 177.483 670.625 178.056C670.292 178.629 670.125 179.494 670.125 180.65C670.125 181.806 670.294 182.673 670.633 183.251C670.971 183.824 671.448 184.111 672.062 184.111ZM682.078 177.337C682.078 178.051 681.849 178.645 681.391 179.119C680.932 179.587 680.357 179.822 679.664 179.822C678.977 179.822 678.404 179.585 677.945 179.111C677.487 178.637 677.258 178.046 677.258 177.337C677.258 176.634 677.487 176.051 677.945 175.587C678.404 175.124 678.977 174.892 679.664 174.892C680.357 174.892 680.932 175.124 681.391 175.587C681.849 176.051 682.078 176.634 682.078 177.337ZM685.18 175.048H686.977L679.531 186.251H677.742L685.18 175.048ZM680.359 178.111C680.531 177.913 680.617 177.655 680.617 177.337C680.617 177.02 680.531 176.762 680.359 176.564C680.188 176.366 679.956 176.267 679.664 176.267C679.372 176.267 679.141 176.366 678.969 176.564C678.802 176.762 678.719 177.02 678.719 177.337C678.719 177.655 678.802 177.913 678.969 178.111C679.141 178.309 679.372 178.408 679.664 178.408C679.956 178.408 680.188 178.309 680.359 178.111ZM687.469 183.931C687.469 184.639 687.237 185.231 686.773 185.705C686.315 186.173 685.742 186.408 685.055 186.408C684.367 186.408 683.792 186.173 683.328 185.705C682.87 185.231 682.641 184.639 682.641 183.931C682.641 183.228 682.87 182.645 683.328 182.181C683.792 181.718 684.367 181.486 685.055 181.486C685.742 181.486 686.315 181.718 686.773 182.181C687.237 182.645 687.469 183.228 687.469 183.931ZM685.742 184.712C685.914 184.509 686 184.249 686 183.931C686 183.613 685.914 183.358 685.742 183.166C685.576 182.973 685.346 182.876 685.055 182.876C684.763 182.876 684.529 182.973 684.352 183.166C684.18 183.358 684.094 183.613 684.094 183.931C684.094 184.249 684.18 184.509 684.352 184.712C684.529 184.916 684.763 185.017 685.055 185.017C685.346 185.017 685.576 184.916 685.742 184.712Z" fill="white"/>
<path d="M709.672 175.048H711.07L716.859 183.337V175.048H718.398V186.251H717.031L711.227 177.978V186.251H709.672V175.048ZM720.688 175.048H727.125V176.525H722.242V179.595H726.594V181.064H722.242V184.783H727.125V186.251H720.688V175.048ZM733.688 174.892C734.474 174.892 735.216 175.041 735.914 175.337C736.617 175.629 737.219 176.03 737.719 176.541C738.224 177.046 738.622 177.653 738.914 178.361C739.206 179.069 739.352 179.822 739.352 180.619C739.352 181.426 739.206 182.189 738.914 182.908C738.622 183.621 738.224 184.236 737.719 184.751C737.219 185.262 736.617 185.666 735.914 185.962C735.216 186.259 734.474 186.408 733.688 186.408C732.896 186.408 732.148 186.259 731.445 185.962C730.747 185.666 730.148 185.262 729.648 184.751C729.148 184.236 728.753 183.621 728.461 182.908C728.169 182.189 728.023 181.426 728.023 180.619C728.023 179.556 728.268 178.587 728.758 177.712C729.253 176.837 729.932 176.15 730.797 175.65C731.667 175.145 732.63 174.892 733.688 174.892ZM735.758 176.939C735.133 176.564 734.443 176.376 733.688 176.376C732.932 176.376 732.242 176.564 731.617 176.939C730.992 177.309 730.5 177.819 730.141 178.47C729.786 179.121 729.609 179.837 729.609 180.619C729.609 181.832 730 182.853 730.781 183.681C731.568 184.509 732.536 184.923 733.688 184.923C734.839 184.923 735.805 184.509 736.586 183.681C737.372 182.853 737.766 181.832 737.766 180.619C737.766 179.837 737.586 179.121 737.227 178.47C736.872 177.819 736.383 177.309 735.758 176.939ZM744.781 186.408C743.599 186.408 742.62 186.059 741.844 185.361C741.068 184.658 740.68 183.775 740.68 182.712H742.203C742.203 183.374 742.443 183.913 742.922 184.33C743.406 184.746 744.026 184.955 744.781 184.955C745.49 184.955 746.07 184.788 746.523 184.455C746.982 184.116 747.211 183.681 747.211 183.15C747.211 182.843 747.138 182.577 746.992 182.353C746.846 182.124 746.651 181.942 746.406 181.806C746.161 181.666 745.88 181.543 745.562 181.439C745.245 181.335 744.909 181.238 744.555 181.15C744.201 181.061 743.846 180.968 743.492 180.869C743.143 180.77 742.81 180.645 742.492 180.494C742.174 180.337 741.893 180.155 741.648 179.947C741.404 179.738 741.208 179.465 741.062 179.126C740.917 178.788 740.844 178.4 740.844 177.962C740.844 177.072 741.195 176.337 741.898 175.759C742.607 175.181 743.497 174.892 744.57 174.892C745.763 174.892 746.698 175.215 747.375 175.861C748.052 176.501 748.391 177.304 748.391 178.267H746.812C746.797 177.71 746.578 177.251 746.156 176.892C745.734 176.528 745.19 176.345 744.523 176.345C743.883 176.345 743.359 176.496 742.953 176.798C742.547 177.095 742.344 177.483 742.344 177.962C742.344 178.238 742.417 178.481 742.562 178.689C742.708 178.892 742.904 179.056 743.148 179.181C743.398 179.301 743.682 179.408 744 179.501C744.323 179.595 744.661 179.686 745.016 179.775C745.37 179.858 745.721 179.952 746.07 180.056C746.424 180.155 746.76 180.288 747.078 180.455C747.401 180.616 747.685 180.809 747.93 181.033C748.18 181.257 748.378 181.551 748.523 181.916C748.669 182.275 748.742 182.686 748.742 183.15C748.742 184.093 748.367 184.871 747.617 185.486C746.867 186.1 745.922 186.408 744.781 186.408ZM754.25 175.048H755.805V186.251H754.25V175.048ZM761.953 178.283C762.958 178.283 763.753 178.598 764.336 179.228C764.924 179.858 765.219 180.712 765.219 181.791V186.251H763.742V181.947C763.742 181.264 763.549 180.718 763.164 180.306C762.779 179.895 762.263 179.689 761.617 179.689C760.961 179.689 760.438 179.895 760.047 180.306C759.656 180.718 759.461 181.264 759.461 181.947V186.251H757.969V178.447H759.461V179.806C759.711 179.322 760.049 178.947 760.477 178.681C760.909 178.416 761.401 178.283 761.953 178.283ZM768.031 174.939C768.297 174.939 768.529 175.038 768.727 175.236C768.924 175.434 769.023 175.666 769.023 175.931C769.023 176.202 768.924 176.436 768.727 176.634C768.529 176.827 768.297 176.923 768.031 176.923C767.755 176.923 767.521 176.827 767.328 176.634C767.135 176.442 767.039 176.207 767.039 175.931C767.039 175.666 767.135 175.434 767.328 175.236C767.526 175.038 767.76 174.939 768.031 174.939ZM767.281 178.447H768.773V186.251H767.281V178.447ZM775.102 179.853H772.992V183.455C772.992 184.455 773.513 184.955 774.555 184.955C774.779 184.955 774.961 184.934 775.102 184.892V186.251C774.862 186.314 774.578 186.345 774.25 186.345C773.406 186.345 772.74 186.103 772.25 185.619C771.76 185.129 771.516 184.418 771.516 183.486V179.853H770V178.447H771.516V176.33H772.992V178.447H775.102V179.853ZM777.375 174.939C777.641 174.939 777.872 175.038 778.07 175.236C778.268 175.434 778.367 175.666 778.367 175.931C778.367 176.202 778.268 176.436 778.07 176.634C777.872 176.827 777.641 176.923 777.375 176.923C777.099 176.923 776.865 176.827 776.672 176.634C776.479 176.442 776.383 176.207 776.383 175.931C776.383 175.666 776.479 175.434 776.672 175.236C776.87 175.038 777.104 174.939 777.375 174.939ZM776.625 178.447H778.117V186.251H776.625V178.447ZM786.508 178.447H787.984V186.251H786.508V184.65C786.216 185.218 785.818 185.653 785.312 185.955C784.807 186.257 784.214 186.408 783.531 186.408C782.479 186.408 781.583 186.014 780.844 185.228C780.109 184.436 779.742 183.475 779.742 182.345C779.742 181.215 780.109 180.257 780.844 179.47C781.583 178.679 782.479 178.283 783.531 178.283C784.214 178.283 784.807 178.434 785.312 178.736C785.818 179.038 786.216 179.473 786.508 180.041V178.447ZM783.836 185.001C784.607 185.001 785.245 184.751 785.75 184.251C786.255 183.751 786.508 183.116 786.508 182.345C786.508 181.574 786.255 180.939 785.75 180.439C785.245 179.939 784.607 179.689 783.836 179.689C783.096 179.689 782.469 179.947 781.953 180.462C781.438 180.978 781.18 181.606 781.18 182.345C781.18 183.085 781.438 183.712 781.953 184.228C782.469 184.744 783.096 185.001 783.836 185.001ZM791.523 175.048V186.251H790.031V175.048H791.523ZM797.359 175.048H798.914V184.783H804.422V186.251H797.359V175.048ZM806.734 174.939C807 174.939 807.232 175.038 807.43 175.236C807.628 175.434 807.727 175.666 807.727 175.931C807.727 176.202 807.628 176.436 807.43 176.634C807.232 176.827 807 176.923 806.734 176.923C806.458 176.923 806.224 176.827 806.031 176.634C805.839 176.442 805.742 176.207 805.742 175.931C805.742 175.666 805.839 175.434 806.031 175.236C806.229 175.038 806.464 174.939 806.734 174.939ZM805.984 178.447H807.477V186.251H805.984V178.447ZM815.867 178.447H817.344V189.08H815.867V184.65C815.576 185.218 815.177 185.653 814.672 185.955C814.167 186.257 813.573 186.408 812.891 186.408C811.839 186.408 810.943 186.014 810.203 185.228C809.469 184.436 809.102 183.475 809.102 182.345C809.102 181.215 809.469 180.257 810.203 179.47C810.943 178.679 811.839 178.283 812.891 178.283C813.573 178.283 814.167 178.434 814.672 178.736C815.177 179.038 815.576 179.473 815.867 180.041V178.447ZM813.195 185.001C813.966 185.001 814.604 184.751 815.109 184.251C815.615 183.751 815.867 183.116 815.867 182.345C815.867 181.574 815.615 180.939 815.109 180.439C814.604 179.939 813.966 179.689 813.195 179.689C812.456 179.689 811.828 179.947 811.312 180.462C810.797 180.978 810.539 181.606 810.539 182.345C810.539 183.085 810.797 183.712 811.312 184.228C811.828 184.744 812.456 185.001 813.195 185.001ZM825.164 178.447H826.641V186.251H825.164V184.876C824.914 185.366 824.573 185.744 824.141 186.009C823.714 186.275 823.219 186.408 822.656 186.408C821.656 186.408 820.862 186.095 820.273 185.47C819.685 184.84 819.391 183.991 819.391 182.923V178.447H820.883V182.744C820.883 183.426 821.073 183.973 821.453 184.384C821.839 184.796 822.352 185.001 822.992 185.001C823.654 185.001 824.18 184.796 824.57 184.384C824.966 183.973 825.164 183.426 825.164 182.744V178.447ZM829.453 174.939C829.719 174.939 829.951 175.038 830.148 175.236C830.346 175.434 830.445 175.666 830.445 175.931C830.445 176.202 830.346 176.436 830.148 176.634C829.951 176.827 829.719 176.923 829.453 176.923C829.177 176.923 828.943 176.827 828.75 176.634C828.557 176.442 828.461 176.207 828.461 175.931C828.461 175.666 828.557 175.434 828.75 175.236C828.948 175.038 829.182 174.939 829.453 174.939ZM828.703 178.447H830.195V186.251H828.703V178.447ZM838.586 175.048H840.062V186.251H838.586V184.65C838.294 185.218 837.896 185.653 837.391 185.955C836.885 186.257 836.292 186.408 835.609 186.408C834.557 186.408 833.661 186.014 832.922 185.228C832.188 184.436 831.82 183.475 831.82 182.345C831.82 181.215 832.188 180.257 832.922 179.47C833.661 178.679 834.557 178.283 835.609 178.283C836.292 178.283 836.885 178.434 837.391 178.736C837.896 179.038 838.294 179.473 838.586 180.041V175.048ZM835.914 185.001C836.685 185.001 837.323 184.751 837.828 184.251C838.333 183.751 838.586 183.116 838.586 182.345C838.586 181.574 838.333 180.939 837.828 180.439C837.323 179.939 836.685 179.689 835.914 179.689C835.174 179.689 834.547 179.947 834.031 180.462C833.516 180.978 833.258 181.606 833.258 182.345C833.258 183.085 833.516 183.712 834.031 184.228C834.547 184.744 835.174 185.001 835.914 185.001ZM842.859 174.939C843.125 174.939 843.357 175.038 843.555 175.236C843.753 175.434 843.852 175.666 843.852 175.931C843.852 176.202 843.753 176.436 843.555 176.634C843.357 176.827 843.125 176.923 842.859 176.923C842.583 176.923 842.349 176.827 842.156 176.634C841.964 176.442 841.867 176.207 841.867 175.931C841.867 175.666 841.964 175.434 842.156 175.236C842.354 175.038 842.589 174.939 842.859 174.939ZM842.109 178.447H843.602V186.251H842.109V178.447ZM849.93 179.853H847.82V183.455C847.82 184.455 848.341 184.955 849.383 184.955C849.607 184.955 849.789 184.934 849.93 184.892V186.251C849.69 186.314 849.406 186.345 849.078 186.345C848.234 186.345 847.568 186.103 847.078 185.619C846.589 185.129 846.344 184.418 846.344 183.486V179.853H844.828V178.447H846.344V176.33H847.82V178.447H849.93V179.853ZM856.906 178.447H858.492L854.031 189.103H852.445L853.82 185.978L850.672 178.447H852.25L854.57 184.267L856.906 178.447Z" fill="black"/>
<rect x="648.539" y="229.251" width="50" height="34" rx="5" fill="#515E6D"/>
<path d="M664.961 242.048V253.251H662.609V245.298L660.117 247.22V244.384L663.383 242.048H664.961ZM670.688 253.408C669.786 253.408 669.003 253.168 668.336 252.689C667.674 252.205 667.172 251.53 666.828 250.666C666.49 249.801 666.32 248.796 666.32 247.65C666.32 246.499 666.492 245.491 666.836 244.626C667.18 243.762 667.682 243.09 668.344 242.611C669.005 242.132 669.786 241.892 670.688 241.892C672.052 241.892 673.122 242.416 673.898 243.462C674.68 244.504 675.07 245.9 675.07 247.65C675.07 248.796 674.898 249.801 674.555 250.666C674.211 251.53 673.706 252.205 673.039 252.689C672.378 253.168 671.594 253.408 670.688 253.408ZM670.688 251.111C671.312 251.111 671.792 250.824 672.125 250.251C672.464 249.679 672.633 248.811 672.633 247.65C672.633 246.488 672.464 245.624 672.125 245.056C671.792 244.483 671.312 244.197 670.688 244.197C670.068 244.197 669.589 244.483 669.25 245.056C668.917 245.629 668.75 246.494 668.75 247.65C668.75 248.806 668.919 249.673 669.258 250.251C669.596 250.824 670.073 251.111 670.688 251.111ZM680.703 244.337C680.703 245.051 680.474 245.645 680.016 246.119C679.557 246.587 678.982 246.822 678.289 246.822C677.602 246.822 677.029 246.585 676.57 246.111C676.112 245.637 675.883 245.046 675.883 244.337C675.883 243.634 676.112 243.051 676.57 242.587C677.029 242.124 677.602 241.892 678.289 241.892C678.982 241.892 679.557 242.124 680.016 242.587C680.474 243.051 680.703 243.634 680.703 244.337ZM683.805 242.048H685.602L678.156 253.251H676.367L683.805 242.048ZM678.984 245.111C679.156 244.913 679.242 244.655 679.242 244.337C679.242 244.02 679.156 243.762 678.984 243.564C678.812 243.366 678.581 243.267 678.289 243.267C677.997 243.267 677.766 243.366 677.594 243.564C677.427 243.762 677.344 244.02 677.344 244.337C677.344 244.655 677.427 244.913 677.594 245.111C677.766 245.309 677.997 245.408 678.289 245.408C678.581 245.408 678.812 245.309 678.984 245.111ZM686.094 250.931C686.094 251.639 685.862 252.231 685.398 252.705C684.94 253.173 684.367 253.408 683.68 253.408C682.992 253.408 682.417 253.173 681.953 252.705C681.495 252.231 681.266 251.639 681.266 250.931C681.266 250.228 681.495 249.645 681.953 249.181C682.417 248.718 682.992 248.486 683.68 248.486C684.367 248.486 684.94 248.718 685.398 249.181C685.862 249.645 686.094 250.228 686.094 250.931ZM684.367 251.712C684.539 251.509 684.625 251.249 684.625 250.931C684.625 250.613 684.539 250.358 684.367 250.166C684.201 249.973 683.971 249.876 683.68 249.876C683.388 249.876 683.154 249.973 682.977 250.166C682.805 250.358 682.719 250.613 682.719 250.931C682.719 251.249 682.805 251.509 682.977 251.712C683.154 251.916 683.388 252.017 683.68 252.017C683.971 252.017 684.201 251.916 684.367 251.712Z" fill="white"/>
<path d="M713.977 242.048C714.961 242.048 715.781 242.366 716.438 243.001C717.094 243.632 717.422 244.423 717.422 245.376C717.422 246.33 717.094 247.126 716.438 247.767C715.781 248.403 714.961 248.72 713.977 248.72H711.227V253.251H709.672V242.048H713.977ZM713.977 247.251C714.513 247.251 714.964 247.072 715.328 246.712C715.698 246.348 715.883 245.903 715.883 245.376C715.883 244.85 715.698 244.41 715.328 244.056C714.964 243.702 714.513 243.525 713.977 243.525H711.227V247.251H713.977ZM722.477 245.298C722.727 245.298 722.966 245.33 723.195 245.392V246.759C722.919 246.671 722.664 246.626 722.43 246.626C721.831 246.626 721.331 246.832 720.93 247.244C720.534 247.65 720.336 248.186 720.336 248.853V253.251H718.844V245.447H720.336V246.58C720.57 246.179 720.872 245.866 721.242 245.642C721.612 245.413 722.023 245.298 722.477 245.298ZM727.602 245.283C728.346 245.283 729.026 245.462 729.641 245.822C730.255 246.176 730.74 246.666 731.094 247.291C731.453 247.916 731.633 248.606 731.633 249.361C731.633 250.501 731.242 251.462 730.461 252.244C729.685 253.02 728.732 253.408 727.602 253.408C726.857 253.408 726.174 253.231 725.555 252.876C724.94 252.522 724.456 252.035 724.102 251.416C723.747 250.796 723.57 250.111 723.57 249.361C723.57 248.21 723.958 247.244 724.734 246.462C725.51 245.676 726.466 245.283 727.602 245.283ZM727.602 246.689C726.867 246.689 726.25 246.944 725.75 247.455C725.255 247.965 725.008 248.6 725.008 249.361C725.008 250.106 725.255 250.733 725.75 251.244C726.25 251.749 726.867 252.001 727.602 252.001C728.331 252.001 728.945 251.746 729.445 251.236C729.945 250.725 730.195 250.1 730.195 249.361C730.195 248.6 729.945 247.965 729.445 247.455C728.945 246.944 728.331 246.689 727.602 246.689ZM736.68 245.283C737.424 245.283 738.104 245.462 738.719 245.822C739.333 246.176 739.818 246.666 740.172 247.291C740.531 247.916 740.711 248.606 740.711 249.361C740.711 250.501 740.32 251.462 739.539 252.244C738.763 253.02 737.81 253.408 736.68 253.408C735.935 253.408 735.253 253.231 734.633 252.876C734.018 252.522 733.534 252.035 733.18 251.416C732.826 250.796 732.648 250.111 732.648 249.361C732.648 248.21 733.036 247.244 733.812 246.462C734.589 245.676 735.544 245.283 736.68 245.283ZM736.68 246.689C735.945 246.689 735.328 246.944 734.828 247.455C734.333 247.965 734.086 248.6 734.086 249.361C734.086 250.106 734.333 250.733 734.828 251.244C735.328 251.749 735.945 252.001 736.68 252.001C737.409 252.001 738.023 251.746 738.523 251.236C739.023 250.725 739.273 250.1 739.273 249.361C739.273 248.6 739.023 247.965 738.523 247.455C738.023 246.944 737.409 246.689 736.68 246.689ZM746.281 243.189C745.234 243.189 744.711 243.684 744.711 244.673V245.447H746.836V246.853H744.711V253.251H743.242V246.853H741.719V245.447H743.242V244.658C743.242 243.725 743.487 243.017 743.977 242.533C744.466 242.043 745.133 241.798 745.977 241.798C746.289 241.798 746.576 241.83 746.836 241.892V243.251C746.674 243.21 746.49 243.189 746.281 243.189ZM755.539 245.283C756.284 245.283 756.964 245.462 757.578 245.822C758.193 246.176 758.677 246.666 759.031 247.291C759.391 247.916 759.57 248.606 759.57 249.361C759.57 250.501 759.18 251.462 758.398 252.244C757.622 253.02 756.669 253.408 755.539 253.408C754.794 253.408 754.112 253.231 753.492 252.876C752.878 252.522 752.393 252.035 752.039 251.416C751.685 250.796 751.508 250.111 751.508 249.361C751.508 248.21 751.896 247.244 752.672 246.462C753.448 245.676 754.404 245.283 755.539 245.283ZM755.539 246.689C754.805 246.689 754.188 246.944 753.688 247.455C753.193 247.965 752.945 248.6 752.945 249.361C752.945 250.106 753.193 250.733 753.688 251.244C754.188 251.749 754.805 252.001 755.539 252.001C756.268 252.001 756.883 251.746 757.383 251.236C757.883 250.725 758.133 250.1 758.133 249.361C758.133 248.6 757.883 247.965 757.383 247.455C756.883 246.944 756.268 246.689 755.539 246.689ZM765.141 243.189C764.094 243.189 763.57 243.684 763.57 244.673V245.447H765.695V246.853H763.57V253.251H762.102V246.853H760.578V245.447H762.102V244.658C762.102 243.725 762.346 243.017 762.836 242.533C763.326 242.043 763.992 241.798 764.836 241.798C765.148 241.798 765.435 241.83 765.695 241.892V243.251C765.534 243.21 765.349 243.189 765.141 243.189ZM774.625 253.408C773.443 253.408 772.464 253.059 771.688 252.361C770.911 251.658 770.523 250.775 770.523 249.712H772.047C772.047 250.374 772.286 250.913 772.766 251.33C773.25 251.746 773.87 251.955 774.625 251.955C775.333 251.955 775.914 251.788 776.367 251.455C776.826 251.116 777.055 250.681 777.055 250.15C777.055 249.843 776.982 249.577 776.836 249.353C776.69 249.124 776.495 248.942 776.25 248.806C776.005 248.666 775.724 248.543 775.406 248.439C775.089 248.335 774.753 248.238 774.398 248.15C774.044 248.061 773.69 247.968 773.336 247.869C772.987 247.77 772.654 247.645 772.336 247.494C772.018 247.337 771.737 247.155 771.492 246.947C771.247 246.738 771.052 246.465 770.906 246.126C770.76 245.788 770.688 245.4 770.688 244.962C770.688 244.072 771.039 243.337 771.742 242.759C772.451 242.181 773.341 241.892 774.414 241.892C775.607 241.892 776.542 242.215 777.219 242.861C777.896 243.501 778.234 244.304 778.234 245.267H776.656C776.641 244.71 776.422 244.251 776 243.892C775.578 243.528 775.034 243.345 774.367 243.345C773.727 243.345 773.203 243.496 772.797 243.798C772.391 244.095 772.188 244.483 772.188 244.962C772.188 245.238 772.26 245.481 772.406 245.689C772.552 245.892 772.747 246.056 772.992 246.181C773.242 246.301 773.526 246.408 773.844 246.501C774.167 246.595 774.505 246.686 774.859 246.775C775.214 246.858 775.565 246.952 775.914 247.056C776.268 247.155 776.604 247.288 776.922 247.455C777.245 247.616 777.529 247.809 777.773 248.033C778.023 248.257 778.221 248.551 778.367 248.916C778.513 249.275 778.586 249.686 778.586 250.15C778.586 251.093 778.211 251.871 777.461 252.486C776.711 253.1 775.766 253.408 774.625 253.408ZM784.18 246.853H782.07V250.455C782.07 251.455 782.591 251.955 783.633 251.955C783.857 251.955 784.039 251.934 784.18 251.892V253.251C783.94 253.314 783.656 253.345 783.328 253.345C782.484 253.345 781.818 253.103 781.328 252.619C780.839 252.129 780.594 251.418 780.594 250.486V246.853H779.078V245.447H780.594V243.33H782.07V245.447H784.18V246.853ZM791.586 245.447H793.062V253.251H791.586V251.65C791.294 252.218 790.896 252.653 790.391 252.955C789.885 253.257 789.292 253.408 788.609 253.408C787.557 253.408 786.661 253.014 785.922 252.228C785.188 251.436 784.82 250.475 784.82 249.345C784.82 248.215 785.188 247.257 785.922 246.47C786.661 245.679 787.557 245.283 788.609 245.283C789.292 245.283 789.885 245.434 790.391 245.736C790.896 246.038 791.294 246.473 791.586 247.041V245.447ZM788.914 252.001C789.685 252.001 790.323 251.751 790.828 251.251C791.333 250.751 791.586 250.116 791.586 249.345C791.586 248.574 791.333 247.939 790.828 247.439C790.323 246.939 789.685 246.689 788.914 246.689C788.174 246.689 787.547 246.947 787.031 247.462C786.516 247.978 786.258 248.606 786.258 249.345C786.258 250.085 786.516 250.712 787.031 251.228C787.547 251.744 788.174 252.001 788.914 252.001ZM802.148 253.251H800.211L796.602 249.525V253.251H795.109V242.048H796.602V248.869L800.055 245.447H801.891L798.07 249.189L802.148 253.251ZM810.078 249.158C810.078 249.382 810.068 249.577 810.047 249.744H803.773C803.862 250.457 804.135 251.025 804.594 251.447C805.057 251.869 805.648 252.08 806.367 252.08C806.914 252.08 807.385 251.957 807.781 251.712C808.177 251.462 808.424 251.132 808.523 250.72H810C809.854 251.533 809.443 252.184 808.766 252.673C808.089 253.163 807.273 253.408 806.32 253.408C805.185 253.408 804.234 253.017 803.469 252.236C802.703 251.449 802.32 250.475 802.32 249.314C802.32 248.574 802.495 247.897 802.844 247.283C803.193 246.663 803.672 246.176 804.281 245.822C804.896 245.462 805.57 245.283 806.305 245.283C807.362 245.283 808.255 245.65 808.984 246.384C809.714 247.119 810.078 248.043 810.078 249.158ZM803.82 248.501H808.477C808.414 247.949 808.177 247.499 807.766 247.15C807.359 246.801 806.852 246.626 806.242 246.626C805.628 246.626 805.104 246.793 804.672 247.126C804.24 247.46 803.956 247.918 803.82 248.501ZM815.5 242.048H821.938V243.525H817.055V246.595H821.406V248.064H817.055V251.783H821.938V253.251H815.5V242.048ZM832.852 245.283C833.815 245.283 834.586 245.577 835.164 246.166C835.747 246.749 836.039 247.538 836.039 248.533V253.251H834.562V248.837C834.562 248.171 834.391 247.647 834.047 247.267C833.703 246.882 833.232 246.689 832.633 246.689C832.091 246.689 831.625 246.871 831.234 247.236C830.844 247.595 830.648 248.129 830.648 248.837V253.251H829.172V248.837C829.172 248.171 828.997 247.647 828.648 247.267C828.305 246.882 827.828 246.689 827.219 246.689C826.688 246.689 826.229 246.869 825.844 247.228C825.464 247.582 825.273 248.119 825.273 248.837V253.251H823.781V245.447H825.273V246.658C825.534 246.179 825.883 245.83 826.32 245.611C826.763 245.392 827.229 245.283 827.719 245.283C828.974 245.283 829.828 245.796 830.281 246.822C830.5 246.348 830.844 245.973 831.312 245.697C831.781 245.421 832.294 245.283 832.852 245.283ZM838.844 241.939C839.109 241.939 839.341 242.038 839.539 242.236C839.737 242.434 839.836 242.666 839.836 242.931C839.836 243.202 839.737 243.436 839.539 243.634C839.341 243.827 839.109 243.923 838.844 243.923C838.568 243.923 838.333 243.827 838.141 243.634C837.948 243.442 837.852 243.207 837.852 242.931C837.852 242.666 837.948 242.434 838.141 242.236C838.339 242.038 838.573 241.939 838.844 241.939ZM838.094 245.447H839.586V253.251H838.094V245.447ZM844.359 253.408C843.443 253.408 842.685 253.179 842.086 252.72C841.492 252.262 841.156 251.639 841.078 250.853H842.492C842.539 251.238 842.727 251.548 843.055 251.783C843.388 252.017 843.802 252.134 844.297 252.134C844.781 252.134 845.169 252.033 845.461 251.83C845.753 251.621 845.898 251.353 845.898 251.025C845.898 250.764 845.812 250.551 845.641 250.384C845.469 250.218 845.247 250.095 844.977 250.017C844.706 249.934 844.404 249.861 844.07 249.798C843.742 249.736 843.411 249.663 843.078 249.58C842.75 249.491 842.451 249.376 842.18 249.236C841.909 249.095 841.688 248.887 841.516 248.611C841.344 248.33 841.258 247.988 841.258 247.587C841.258 246.916 841.521 246.363 842.047 245.931C842.573 245.499 843.266 245.283 844.125 245.283C844.932 245.283 845.625 245.494 846.203 245.916C846.781 246.332 847.117 246.905 847.211 247.634H845.719C845.672 247.317 845.497 247.054 845.195 246.845C844.898 246.637 844.529 246.533 844.086 246.533C843.674 246.533 843.339 246.619 843.078 246.791C842.823 246.962 842.695 247.192 842.695 247.478C842.695 247.728 842.781 247.931 842.953 248.087C843.125 248.238 843.346 248.35 843.617 248.423C843.888 248.496 844.188 248.561 844.516 248.619C844.849 248.676 845.18 248.751 845.508 248.845C845.841 248.934 846.143 249.054 846.414 249.205C846.685 249.356 846.906 249.582 847.078 249.884C847.25 250.186 847.336 250.556 847.336 250.994C847.336 251.686 847.052 252.262 846.484 252.72C845.917 253.179 845.208 253.408 844.359 253.408ZM851.625 253.408C850.708 253.408 849.951 253.179 849.352 252.72C848.758 252.262 848.422 251.639 848.344 250.853H849.758C849.805 251.238 849.992 251.548 850.32 251.783C850.654 252.017 851.068 252.134 851.562 252.134C852.047 252.134 852.435 252.033 852.727 251.83C853.018 251.621 853.164 251.353 853.164 251.025C853.164 250.764 853.078 250.551 852.906 250.384C852.734 250.218 852.513 250.095 852.242 250.017C851.971 249.934 851.669 249.861 851.336 249.798C851.008 249.736 850.677 249.663 850.344 249.58C850.016 249.491 849.716 249.376 849.445 249.236C849.174 249.095 848.953 248.887 848.781 248.611C848.609 248.33 848.523 247.988 848.523 247.587C848.523 246.916 848.786 246.363 849.312 245.931C849.839 245.499 850.531 245.283 851.391 245.283C852.198 245.283 852.891 245.494 853.469 245.916C854.047 246.332 854.383 246.905 854.477 247.634H852.984C852.938 247.317 852.763 247.054 852.461 246.845C852.164 246.637 851.794 246.533 851.352 246.533C850.94 246.533 850.604 246.619 850.344 246.791C850.089 246.962 849.961 247.192 849.961 247.478C849.961 247.728 850.047 247.931 850.219 248.087C850.391 248.238 850.612 248.35 850.883 248.423C851.154 248.496 851.453 248.561 851.781 248.619C852.115 248.676 852.445 248.751 852.773 248.845C853.107 248.934 853.409 249.054 853.68 249.205C853.951 249.356 854.172 249.582 854.344 249.884C854.516 250.186 854.602 250.556 854.602 250.994C854.602 251.686 854.318 252.262 853.75 252.72C853.182 253.179 852.474 253.408 851.625 253.408ZM856.969 241.939C857.234 241.939 857.466 242.038 857.664 242.236C857.862 242.434 857.961 242.666 857.961 242.931C857.961 243.202 857.862 243.436 857.664 243.634C857.466 243.827 857.234 243.923 856.969 243.923C856.693 243.923 856.458 243.827 856.266 243.634C856.073 243.442 855.977 243.207 855.977 242.931C855.977 242.666 856.073 242.434 856.266 242.236C856.464 242.038 856.698 241.939 856.969 241.939ZM856.219 245.447H857.711V253.251H856.219V245.447ZM863.367 245.283C864.112 245.283 864.792 245.462 865.406 245.822C866.021 246.176 866.505 246.666 866.859 247.291C867.219 247.916 867.398 248.606 867.398 249.361C867.398 250.501 867.008 251.462 866.227 252.244C865.451 253.02 864.497 253.408 863.367 253.408C862.622 253.408 861.94 253.231 861.32 252.876C860.706 252.522 860.221 252.035 859.867 251.416C859.513 250.796 859.336 250.111 859.336 249.361C859.336 248.21 859.724 247.244 860.5 246.462C861.276 245.676 862.232 245.283 863.367 245.283ZM863.367 246.689C862.633 246.689 862.016 246.944 861.516 247.455C861.021 247.965 860.773 248.6 860.773 249.361C860.773 250.106 861.021 250.733 861.516 251.244C862.016 251.749 862.633 252.001 863.367 252.001C864.096 252.001 864.711 251.746 865.211 251.236C865.711 250.725 865.961 250.1 865.961 249.361C865.961 248.6 865.711 247.965 865.211 247.455C864.711 246.944 864.096 246.689 863.367 246.689ZM873.016 245.283C874.021 245.283 874.815 245.598 875.398 246.228C875.987 246.858 876.281 247.712 876.281 248.791V253.251H874.805V248.947C874.805 248.264 874.612 247.718 874.227 247.306C873.841 246.895 873.326 246.689 872.68 246.689C872.023 246.689 871.5 246.895 871.109 247.306C870.719 247.718 870.523 248.264 870.523 248.947V253.251H869.031V245.447H870.523V246.806C870.773 246.322 871.112 245.947 871.539 245.681C871.971 245.416 872.464 245.283 873.016 245.283ZM881.078 253.408C880.161 253.408 879.404 253.179 878.805 252.72C878.211 252.262 877.875 251.639 877.797 250.853H879.211C879.258 251.238 879.445 251.548 879.773 251.783C880.107 252.017 880.521 252.134 881.016 252.134C881.5 252.134 881.888 252.033 882.18 251.83C882.471 251.621 882.617 251.353 882.617 251.025C882.617 250.764 882.531 250.551 882.359 250.384C882.188 250.218 881.966 250.095 881.695 250.017C881.424 249.934 881.122 249.861 880.789 249.798C880.461 249.736 880.13 249.663 879.797 249.58C879.469 249.491 879.169 249.376 878.898 249.236C878.628 249.095 878.406 248.887 878.234 248.611C878.062 248.33 877.977 247.988 877.977 247.587C877.977 246.916 878.24 246.363 878.766 245.931C879.292 245.499 879.984 245.283 880.844 245.283C881.651 245.283 882.344 245.494 882.922 245.916C883.5 246.332 883.836 246.905 883.93 247.634H882.438C882.391 247.317 882.216 247.054 881.914 246.845C881.617 246.637 881.247 246.533 880.805 246.533C880.393 246.533 880.057 246.619 879.797 246.791C879.542 246.962 879.414 247.192 879.414 247.478C879.414 247.728 879.5 247.931 879.672 248.087C879.844 248.238 880.065 248.35 880.336 248.423C880.607 248.496 880.906 248.561 881.234 248.619C881.568 248.676 881.898 248.751 882.227 248.845C882.56 248.934 882.862 249.054 883.133 249.205C883.404 249.356 883.625 249.582 883.797 249.884C883.969 250.186 884.055 250.556 884.055 250.994C884.055 251.686 883.771 252.262 883.203 252.72C882.635 253.179 881.927 253.408 881.078 253.408Z" fill="black"/>
<rect x="648.539" y="296.251" width="50" height="34" rx="5" fill="#8293A8"/>
<path d="M664.961 309.048V320.251H662.609V312.298L660.117 314.22V311.384L663.383 309.048H664.961ZM670.688 320.408C669.786 320.408 669.003 320.168 668.336 319.689C667.674 319.205 667.172 318.53 666.828 317.666C666.49 316.801 666.32 315.796 666.32 314.65C666.32 313.499 666.492 312.491 666.836 311.626C667.18 310.762 667.682 310.09 668.344 309.611C669.005 309.132 669.786 308.892 670.688 308.892C672.052 308.892 673.122 309.416 673.898 310.462C674.68 311.504 675.07 312.9 675.07 314.65C675.07 315.796 674.898 316.801 674.555 317.666C674.211 318.53 673.706 319.205 673.039 319.689C672.378 320.168 671.594 320.408 670.688 320.408ZM670.688 318.111C671.312 318.111 671.792 317.824 672.125 317.251C672.464 316.679 672.633 315.811 672.633 314.65C672.633 313.488 672.464 312.624 672.125 312.056C671.792 311.483 671.312 311.197 670.688 311.197C670.068 311.197 669.589 311.483 669.25 312.056C668.917 312.629 668.75 313.494 668.75 314.65C668.75 315.806 668.919 316.673 669.258 317.251C669.596 317.824 670.073 318.111 670.688 318.111ZM680.703 311.337C680.703 312.051 680.474 312.645 680.016 313.119C679.557 313.587 678.982 313.822 678.289 313.822C677.602 313.822 677.029 313.585 676.57 313.111C676.112 312.637 675.883 312.046 675.883 311.337C675.883 310.634 676.112 310.051 676.57 309.587C677.029 309.124 677.602 308.892 678.289 308.892C678.982 308.892 679.557 309.124 680.016 309.587C680.474 310.051 680.703 310.634 680.703 311.337ZM683.805 309.048H685.602L678.156 320.251H676.367L683.805 309.048ZM678.984 312.111C679.156 311.913 679.242 311.655 679.242 311.337C679.242 311.02 679.156 310.762 678.984 310.564C678.812 310.366 678.581 310.267 678.289 310.267C677.997 310.267 677.766 310.366 677.594 310.564C677.427 310.762 677.344 311.02 677.344 311.337C677.344 311.655 677.427 311.913 677.594 312.111C677.766 312.309 677.997 312.408 678.289 312.408C678.581 312.408 678.812 312.309 678.984 312.111ZM686.094 317.931C686.094 318.639 685.862 319.231 685.398 319.705C684.94 320.173 684.367 320.408 683.68 320.408C682.992 320.408 682.417 320.173 681.953 319.705C681.495 319.231 681.266 318.639 681.266 317.931C681.266 317.228 681.495 316.645 681.953 316.181C682.417 315.718 682.992 315.486 683.68 315.486C684.367 315.486 684.94 315.718 685.398 316.181C685.862 316.645 686.094 317.228 686.094 317.931ZM684.367 318.712C684.539 318.509 684.625 318.249 684.625 317.931C684.625 317.613 684.539 317.358 684.367 317.166C684.201 316.973 683.971 316.876 683.68 316.876C683.388 316.876 683.154 316.973 682.977 317.166C682.805 317.358 682.719 317.613 682.719 317.931C682.719 318.249 682.805 318.509 682.977 318.712C683.154 318.916 683.388 319.017 683.68 319.017C683.971 319.017 684.201 318.916 684.367 318.712Z" fill="white"/>
<path d="M714.859 320.408C713.818 320.408 712.867 320.155 712.008 319.65C711.154 319.145 710.482 318.449 709.992 317.564C709.503 316.679 709.258 315.697 709.258 314.619C709.258 313.556 709.503 312.587 709.992 311.712C710.482 310.837 711.154 310.15 712.008 309.65C712.867 309.145 713.818 308.892 714.859 308.892C716.125 308.892 717.245 309.259 718.219 309.994C719.193 310.723 719.779 311.647 719.977 312.767H718.266C718.073 312.064 717.659 311.491 717.023 311.048C716.393 310.6 715.672 310.376 714.859 310.376C714.115 310.376 713.435 310.564 712.82 310.939C712.206 311.309 711.721 311.819 711.367 312.47C711.018 313.121 710.844 313.837 710.844 314.619C710.844 315.832 711.229 316.853 712 317.681C712.771 318.509 713.724 318.923 714.859 318.923C715.688 318.923 716.419 318.689 717.055 318.22C717.69 317.746 718.099 317.137 718.281 316.392H720.008C719.779 317.58 719.185 318.546 718.227 319.291C717.273 320.035 716.151 320.408 714.859 320.408ZM729.047 316.158C729.047 316.382 729.036 316.577 729.016 316.744H722.742C722.831 317.457 723.104 318.025 723.562 318.447C724.026 318.869 724.617 319.08 725.336 319.08C725.883 319.08 726.354 318.957 726.75 318.712C727.146 318.462 727.393 318.132 727.492 317.72H728.969C728.823 318.533 728.411 319.184 727.734 319.673C727.057 320.163 726.242 320.408 725.289 320.408C724.154 320.408 723.203 320.017 722.438 319.236C721.672 318.449 721.289 317.475 721.289 316.314C721.289 315.574 721.464 314.897 721.812 314.283C722.161 313.663 722.641 313.176 723.25 312.822C723.865 312.462 724.539 312.283 725.273 312.283C726.331 312.283 727.224 312.65 727.953 313.384C728.682 314.119 729.047 315.043 729.047 316.158ZM722.789 315.501H727.445C727.383 314.949 727.146 314.499 726.734 314.15C726.328 313.801 725.82 313.626 725.211 313.626C724.596 313.626 724.073 313.793 723.641 314.126C723.208 314.46 722.924 314.918 722.789 315.501ZM734.656 312.283C735.661 312.283 736.456 312.598 737.039 313.228C737.628 313.858 737.922 314.712 737.922 315.791V320.251H736.445V315.947C736.445 315.264 736.253 314.718 735.867 314.306C735.482 313.895 734.966 313.689 734.32 313.689C733.664 313.689 733.141 313.895 732.75 314.306C732.359 314.718 732.164 315.264 732.164 315.947V320.251H730.672V312.447H732.164V313.806C732.414 313.322 732.753 312.947 733.18 312.681C733.612 312.416 734.104 312.283 734.656 312.283ZM743.883 313.853H741.773V317.455C741.773 318.455 742.294 318.955 743.336 318.955C743.56 318.955 743.742 318.934 743.883 318.892V320.251C743.643 320.314 743.359 320.345 743.031 320.345C742.188 320.345 741.521 320.103 741.031 319.619C740.542 319.129 740.297 318.418 740.297 317.486V313.853H738.781V312.447H740.297V310.33H741.773V312.447H743.883V313.853ZM749.039 312.298C749.289 312.298 749.529 312.33 749.758 312.392V313.759C749.482 313.671 749.227 313.626 748.992 313.626C748.393 313.626 747.893 313.832 747.492 314.244C747.096 314.65 746.898 315.186 746.898 315.853V320.251H745.406V312.447H746.898V313.58C747.133 313.179 747.435 312.866 747.805 312.642C748.174 312.413 748.586 312.298 749.039 312.298ZM756.898 312.447H758.375V320.251H756.898V318.65C756.607 319.218 756.208 319.653 755.703 319.955C755.198 320.257 754.604 320.408 753.922 320.408C752.87 320.408 751.974 320.014 751.234 319.228C750.5 318.436 750.133 317.475 750.133 316.345C750.133 315.215 750.5 314.257 751.234 313.47C751.974 312.679 752.87 312.283 753.922 312.283C754.604 312.283 755.198 312.434 755.703 312.736C756.208 313.038 756.607 313.473 756.898 314.041V312.447ZM754.227 319.001C754.997 319.001 755.635 318.751 756.141 318.251C756.646 317.751 756.898 317.116 756.898 316.345C756.898 315.574 756.646 314.939 756.141 314.439C755.635 313.939 754.997 313.689 754.227 313.689C753.487 313.689 752.859 313.947 752.344 314.462C751.828 314.978 751.57 315.606 751.57 316.345C751.57 317.085 751.828 317.712 752.344 318.228C752.859 318.744 753.487 319.001 754.227 319.001ZM761.914 309.048V320.251H760.422V309.048H761.914ZM764.703 308.939C764.969 308.939 765.201 309.038 765.398 309.236C765.596 309.434 765.695 309.666 765.695 309.931C765.695 310.202 765.596 310.436 765.398 310.634C765.201 310.827 764.969 310.923 764.703 310.923C764.427 310.923 764.193 310.827 764 310.634C763.807 310.442 763.711 310.207 763.711 309.931C763.711 309.666 763.807 309.434 764 309.236C764.198 309.038 764.432 308.939 764.703 308.939ZM763.953 312.447H765.445V320.251H763.953V312.447ZM773.805 312.447V313.533L768.992 318.876L773.82 318.845V320.251H766.922V319.166L771.758 313.822L767.258 313.853V312.447H773.805ZM782.547 316.158C782.547 316.382 782.536 316.577 782.516 316.744H776.242C776.331 317.457 776.604 318.025 777.062 318.447C777.526 318.869 778.117 319.08 778.836 319.08C779.383 319.08 779.854 318.957 780.25 318.712C780.646 318.462 780.893 318.132 780.992 317.72H782.469C782.323 318.533 781.911 319.184 781.234 319.673C780.557 320.163 779.742 320.408 778.789 320.408C777.654 320.408 776.703 320.017 775.938 319.236C775.172 318.449 774.789 317.475 774.789 316.314C774.789 315.574 774.964 314.897 775.312 314.283C775.661 313.663 776.141 313.176 776.75 312.822C777.365 312.462 778.039 312.283 778.773 312.283C779.831 312.283 780.724 312.65 781.453 313.384C782.182 314.119 782.547 315.043 782.547 316.158ZM776.289 315.501H780.945C780.883 314.949 780.646 314.499 780.234 314.15C779.828 313.801 779.32 313.626 778.711 313.626C778.096 313.626 777.573 313.793 777.141 314.126C776.708 314.46 776.424 314.918 776.289 315.501ZM790.32 309.048H791.797V320.251H790.32V318.65C790.029 319.218 789.63 319.653 789.125 319.955C788.62 320.257 788.026 320.408 787.344 320.408C786.292 320.408 785.396 320.014 784.656 319.228C783.922 318.436 783.555 317.475 783.555 316.345C783.555 315.215 783.922 314.257 784.656 313.47C785.396 312.679 786.292 312.283 787.344 312.283C788.026 312.283 788.62 312.434 789.125 312.736C789.63 313.038 790.029 313.473 790.32 314.041V309.048ZM787.648 319.001C788.419 319.001 789.057 318.751 789.562 318.251C790.068 317.751 790.32 317.116 790.32 316.345C790.32 315.574 790.068 314.939 789.562 314.439C789.057 313.939 788.419 313.689 787.648 313.689C786.909 313.689 786.281 313.947 785.766 314.462C785.25 314.978 784.992 315.606 784.992 316.345C784.992 317.085 785.25 317.712 785.766 318.228C786.281 318.744 786.909 319.001 787.648 319.001ZM797.641 309.048H804.078V310.525H799.195V313.595H803.547V315.064H799.195V318.783H804.078V320.251H797.641V309.048ZM812.758 320.251H810.977L808.961 317.455L806.945 320.251H805.203L808.102 316.22L805.375 312.447H807.141L808.977 314.986L810.805 312.447H812.562L809.859 316.22L812.758 320.251ZM817.07 320.408C816.326 320.408 815.643 320.231 815.023 319.876C814.409 319.522 813.924 319.035 813.57 318.416C813.216 317.796 813.039 317.111 813.039 316.361C813.039 315.21 813.427 314.244 814.203 313.462C814.979 312.676 815.935 312.283 817.07 312.283C817.982 312.283 818.786 312.556 819.484 313.103C820.188 313.645 820.604 314.322 820.734 315.134H819.227C819.112 314.718 818.852 314.374 818.445 314.103C818.039 313.827 817.581 313.689 817.07 313.689C816.336 313.689 815.719 313.944 815.219 314.455C814.724 314.965 814.477 315.6 814.477 316.361C814.477 317.106 814.724 317.733 815.219 318.244C815.719 318.749 816.336 319.001 817.07 319.001C817.591 319.001 818.057 318.863 818.469 318.587C818.88 318.306 819.138 317.944 819.242 317.501H820.734C820.62 318.35 820.214 319.048 819.516 319.595C818.818 320.137 818.003 320.408 817.07 320.408ZM826.234 312.283C827.24 312.283 828.034 312.598 828.617 313.228C829.206 313.858 829.5 314.712 829.5 315.791V320.251H828.023V315.947C828.023 315.264 827.831 314.718 827.445 314.306C827.06 313.895 826.544 313.689 825.898 313.689C825.242 313.689 824.719 313.895 824.328 314.306C823.938 314.718 823.742 315.264 823.742 315.947V320.251H822.25V309.048H823.742V313.806C823.992 313.322 824.331 312.947 824.758 312.681C825.19 312.416 825.682 312.283 826.234 312.283ZM837.914 312.447H839.391V320.251H837.914V318.65C837.622 319.218 837.224 319.653 836.719 319.955C836.214 320.257 835.62 320.408 834.938 320.408C833.885 320.408 832.99 320.014 832.25 319.228C831.516 318.436 831.148 317.475 831.148 316.345C831.148 315.215 831.516 314.257 832.25 313.47C832.99 312.679 833.885 312.283 834.938 312.283C835.62 312.283 836.214 312.434 836.719 312.736C837.224 313.038 837.622 313.473 837.914 314.041V312.447ZM835.242 319.001C836.013 319.001 836.651 318.751 837.156 318.251C837.661 317.751 837.914 317.116 837.914 316.345C837.914 315.574 837.661 314.939 837.156 314.439C836.651 313.939 836.013 313.689 835.242 313.689C834.503 313.689 833.875 313.947 833.359 314.462C832.844 314.978 832.586 315.606 832.586 316.345C832.586 317.085 832.844 317.712 833.359 318.228C833.875 318.744 834.503 319.001 835.242 319.001ZM845.422 312.283C846.427 312.283 847.221 312.598 847.805 313.228C848.393 313.858 848.688 314.712 848.688 315.791V320.251H847.211V315.947C847.211 315.264 847.018 314.718 846.633 314.306C846.247 313.895 845.732 313.689 845.086 313.689C844.43 313.689 843.906 313.895 843.516 314.306C843.125 314.718 842.93 315.264 842.93 315.947V320.251H841.438V312.447H842.93V313.806C843.18 313.322 843.518 312.947 843.945 312.681C844.378 312.416 844.87 312.283 845.422 312.283ZM857.102 312.447H858.578V319.978C858.578 321.056 858.211 321.918 857.477 322.564C856.747 323.21 855.807 323.533 854.656 323.533C854.219 323.533 853.789 323.481 853.367 323.376C852.945 323.272 852.542 323.113 852.156 322.9C851.776 322.692 851.461 322.4 851.211 322.025C850.966 321.655 850.833 321.228 850.812 320.744H852.273C852.294 321.212 852.529 321.587 852.977 321.869C853.424 322.155 853.969 322.298 854.609 322.298C855.323 322.298 855.917 322.09 856.391 321.673C856.865 321.257 857.102 320.712 857.102 320.041V318.509C856.81 319.061 856.409 319.488 855.898 319.791C855.393 320.087 854.802 320.236 854.125 320.236C853.073 320.236 852.177 319.848 851.438 319.072C850.703 318.296 850.336 317.356 850.336 316.251C850.336 315.528 850.503 314.861 850.836 314.251C851.174 313.642 851.633 313.163 852.211 312.814C852.794 312.46 853.432 312.283 854.125 312.283C854.802 312.283 855.393 312.431 855.898 312.728C856.409 313.025 856.81 313.447 857.102 313.994V312.447ZM854.43 318.861C855.201 318.861 855.839 318.616 856.344 318.126C856.849 317.632 857.102 317.007 857.102 316.251C857.102 315.507 856.849 314.889 856.344 314.4C855.839 313.905 855.201 313.658 854.43 313.658C853.69 313.658 853.062 313.91 852.547 314.416C852.031 314.921 851.773 315.533 851.773 316.251C851.773 316.981 852.031 317.598 852.547 318.103C853.062 318.608 853.69 318.861 854.43 318.861ZM867.969 316.158C867.969 316.382 867.958 316.577 867.938 316.744H861.664C861.753 317.457 862.026 318.025 862.484 318.447C862.948 318.869 863.539 319.08 864.258 319.08C864.805 319.08 865.276 318.957 865.672 318.712C866.068 318.462 866.315 318.132 866.414 317.72H867.891C867.745 318.533 867.333 319.184 866.656 319.673C865.979 320.163 865.164 320.408 864.211 320.408C863.076 320.408 862.125 320.017 861.359 319.236C860.594 318.449 860.211 317.475 860.211 316.314C860.211 315.574 860.385 314.897 860.734 314.283C861.083 313.663 861.562 313.176 862.172 312.822C862.786 312.462 863.461 312.283 864.195 312.283C865.253 312.283 866.146 312.65 866.875 313.384C867.604 314.119 867.969 315.043 867.969 316.158ZM861.711 315.501H866.367C866.305 314.949 866.068 314.499 865.656 314.15C865.25 313.801 864.742 313.626 864.133 313.626C863.518 313.626 862.995 313.793 862.562 314.126C862.13 314.46 861.846 314.918 861.711 315.501ZM872.328 320.408C871.411 320.408 870.654 320.179 870.055 319.72C869.461 319.262 869.125 318.639 869.047 317.853H870.461C870.508 318.238 870.695 318.548 871.023 318.783C871.357 319.017 871.771 319.134 872.266 319.134C872.75 319.134 873.138 319.033 873.43 318.83C873.721 318.621 873.867 318.353 873.867 318.025C873.867 317.764 873.781 317.551 873.609 317.384C873.438 317.218 873.216 317.095 872.945 317.017C872.674 316.934 872.372 316.861 872.039 316.798C871.711 316.736 871.38 316.663 871.047 316.58C870.719 316.491 870.419 316.376 870.148 316.236C869.878 316.095 869.656 315.887 869.484 315.611C869.312 315.33 869.227 314.988 869.227 314.587C869.227 313.916 869.49 313.363 870.016 312.931C870.542 312.499 871.234 312.283 872.094 312.283C872.901 312.283 873.594 312.494 874.172 312.916C874.75 313.332 875.086 313.905 875.18 314.634H873.688C873.641 314.317 873.466 314.054 873.164 313.845C872.867 313.637 872.497 313.533 872.055 313.533C871.643 313.533 871.307 313.619 871.047 313.791C870.792 313.962 870.664 314.192 870.664 314.478C870.664 314.728 870.75 314.931 870.922 315.087C871.094 315.238 871.315 315.35 871.586 315.423C871.857 315.496 872.156 315.561 872.484 315.619C872.818 315.676 873.148 315.751 873.477 315.845C873.81 315.934 874.112 316.054 874.383 316.205C874.654 316.356 874.875 316.582 875.047 316.884C875.219 317.186 875.305 317.556 875.305 317.994C875.305 318.686 875.021 319.262 874.453 319.72C873.885 320.179 873.177 320.408 872.328 320.408Z" fill="black"/>
</svg>
